<svg id="Layer_1" data-name="Layer 1" xmlns="http://www.w3.org/2000/svg" width="64" height="64" viewBox="0 0 64 64"><defs><style>.cls-1{fill:#666;}</style></defs><title>email_plane</title><path class="cls-1" d="M59.9,4.57a0.43,0.43,0,0,0,0-.07,1.84,1.84,0,0,0-.17-0.22l0-.05,0,0,0,0A0.84,0.84,0,0,0,59.3,4h0A0.82,0.82,0,0,0,59,4h-0.1a1.17,1.17,0,0,0-.25.07l-0.09,0,0,0-52,32a1,1,0,0,0-.47,1,1,1,0,0,0,.69.83L26,44.09V59a1,1,0,0,0,.72,1A0.9,0.9,0,0,0,27,60a1,1,0,0,0,.85-0.47l7.79-12.37L50.7,51.95a1,1,0,0,0,.3,0,1,1,0,0,0,.52-0.15A1,1,0,0,0,52,51.17l8-46A1.47,1.47,0,0,0,60,5V4.9A0.9,0.9,0,0,0,59.9,4.57ZM54.31,9.06L26.66,42.21,9.38,36.71ZM28,55.54V44.74l5.67,1.8ZM50.21,49.7L28.72,42.86,57.38,8.51Z"/></svg>