<svg id="Layer_1" data-name="Layer 1" xmlns="http://www.w3.org/2000/svg" width="64" height="64" viewBox="0 0 64 64"><defs><style>.cls-1{fill:#666;}</style></defs><title>scroll</title><path id="scroll" class="cls-1" d="M54,6H14a4,4,0,0,0-4,4V52H7a1,1,0,0,0-1,1v3a4,4,0,0,0,4,4H48a4,4,0,0,0,4-4V14h5a1,1,0,0,0,1-1V10A4,4,0,0,0,54,6ZM10,58a2,2,0,0,1-2-2V54H44v2a4,4,0,0,0,.54,2H10Zm40-2a2,2,0,0,1-4,0V53a1,1,0,0,0-1-1H12V10a2,2,0,0,1,2-2H50.56A4,4,0,0,0,50,10V56Zm6-44H52V10a2,2,0,0,1,4,0v2ZM43,20H19a1,1,0,0,1,0-2H43A1,1,0,0,1,43,20Zm0,6H19a1,1,0,0,1,0-2H43A1,1,0,0,1,43,26Zm0,6H19a1,1,0,0,1,0-2H43A1,1,0,0,1,43,32Zm0,6H19a1,1,0,0,1,0-2H43A1,1,0,0,1,43,38Zm-8,6H19a1,1,0,0,1,0-2H35A1,1,0,0,1,35,44Z"/></svg>